<svg id="a" xmlns="http://www.w3.org/2000/svg" viewBox="2.74 4.47 32.5 29.04"><defs><style>.b{fill:#fff;}.c{fill:#f0d6d4;}.d{fill:#bc91a5;}.e{fill:#1b202b;}.f{fill:#a3aebe;}.g{fill:#2f3747;}.h{fill:#61abd5;}.i{fill:#467ca2;}</style></defs><g><g><path class="h" d="M29.74,12.36c.14-.15,.26-.32,.37-.51l.79-1.36c.85-1.47,.34-3.37-1.13-4.22h0c-1.47-.85-3.37-.34-4.22,1.13l-.18,.32c-1.95-1.23-4.25-1.94-6.71-1.94h0c-2.46,0-4.76,.71-6.71,1.94l-.18-.32c-.85-1.47-2.75-1.98-4.22-1.13h0c-1.47,.85-1.98,2.75-1.13,4.22l.79,1.36c.11,.19,.23,.35,.37,.51-1,1.81-1.56,3.88-1.56,6.07h0c0,2.5,2.02,4.52,4.52,4.52H26.78c2.5,0,4.52-2.02,4.52-4.52h0c0-2.2-.57-4.27-1.56-6.07Z"></path><path class="i" d="M6,18.43c0,2.5,2.02,4.52,4.52,4.52H26.78c2.5,0,4.52-2.02,4.52-4.52h0c0-.42-.02-.84-.06-1.26,0,2.03-.69,3.69-3.21,3.69H9.27c-2.53,0-3.21-1.74-3.21-3.69-.04,.41-.06,.83-.06,1.26h0Z"></path><rect class="b" x="17.08" y="19.45" width="3.15" height="2.23" rx="1.12" ry="1.12"></rect><path class="c" d="M18.61,17.32h.09c1.25,0,2.27,1.02,2.27,2.27h0c0,.56-.46,1.02-1.02,1.02h-2.58c-.56,0-1.02-.46-1.02-1.02h0c0-1.25,1.02-2.27,2.27-2.27Z"></path><rect class="d" x="17.08" y="16.74" width="3.15" height="1.81" rx=".91" ry=".91"></rect><path class="i" d="M8.41,10.91c.85-1.19,1.81-2.03,2.52-2.54-.3-.66-.97-1.13-1.74-1.13-1.06,0-1.92,.86-1.92,1.92,0,.78,.47,1.46,1.14,1.75Z"></path><path class="i" d="M28.9,10.91c-.85-1.19-1.81-2.03-2.52-2.54,.3-.66,.97-1.13,1.74-1.13,1.06,0,1.92,.86,1.92,1.92,0,.78-.47,1.46-1.14,1.75Z"></path></g><path class="e" d="M34.23,6.95c-.66-.66-1.53-1.02-2.45-1.02-.12,0-.23,0-.35,.02-.29-.31-.63-.59-1.02-.81-.66-.38-1.42-.59-2.19-.59-1.25,0-2.44,.54-3.26,1.44-1.95-1-4.11-1.52-6.31-1.52s-4.36,.52-6.31,1.52c-.82-.9-2.01-1.44-3.26-1.44-.77,0-1.52,.2-2.19,.59-2.1,1.21-2.82,3.9-1.61,6l.76,1.32c-.88,1.86-1.35,3.91-1.35,5.97,0,3.21,2.61,5.83,5.83,5.83H26.78c3.21,0,5.83-2.61,5.83-5.83,0-1.45-.24-2.89-.68-4.27l2.3-2.3c1.35-1.35,1.35-3.55,0-4.91Zm-7.45,16H10.52c-2.5,0-4.52-2.02-4.52-4.52,0-2.2,.57-4.27,1.56-6.07-.14-.15-.26-.32-.37-.51l-.79-1.36c-.85-1.47-.34-3.37,1.13-4.22,.48-.28,1.01-.41,1.53-.41,1.07,0,2.11,.55,2.68,1.54l.18,.32c1.95-1.23,4.25-1.94,6.71-1.94s4.76,.71,6.71,1.94l.18-.32c.57-.99,1.61-1.54,2.68-1.54,.52,0,1.05,.13,1.53,.41,.08,.05,.16,.1,.24,.15-.24,.15-.47,.32-.67,.52l-1.23,1.23c-.12-.04-.25-.06-.38-.06-.41,0-.78,.18-1.04,.47,.59,.46,1.29,1.11,1.96,1.97,.29-.26,.47-.63,.47-1.04,0-.15-.02-.29-.07-.43l1.21-1.21c.19-.19,.41-.34,.65-.45,.52,.92,.56,2.08,0,3.06l-.79,1.36c-.11,.19-.23,.35-.37,.51,1,1.81,1.56,3.88,1.56,6.07,0,2.5-2.02,4.52-4.52,4.52Zm6.53-12.02l-1.89,1.89c-.05-.12-.1-.24-.16-.36l.76-1.32c.7-1.22,.75-2.63,.26-3.84,.38,.09,.74,.29,1.02,.57,.84,.84,.84,2.21,0,3.06Z"></path><g><path class="e" d="M20.23,11.42v2.64h-3.15v-2.64H6v4.13c0,1.89,1.53,3.42,3.42,3.42h4.23c1.89,0,3.42-1.53,3.42-3.42v-.18h3.15v.18c0,1.89,1.53,3.42,3.42,3.42h4.23c1.89,0,3.42-1.53,3.42-3.42v-4.13h-11.07Z"></path><g><path class="g" d="M7.13,13.82c0,1.67,1.37,3.03,3.03,3.03h2.73c1.67,0,3.03-1.37,3.03-3.03v-1.24H7.13v1.24Z"></path><path class="g" d="M21.37,12.58v1.24c0,1.67,1.37,3.03,3.03,3.03h2.73c1.67,0,3.03-1.37,3.03-3.03v-1.24h-8.8Z"></path></g><path class="f" d="M7.13,12.58H15.93c0,.69-.56,1.25-1.25,1.25h-6.3c-.69,0-1.25-.56-1.25-1.25h0Z"></path><path class="f" d="M21.37,12.58h8.8c0,.69-.56,1.25-1.25,1.25h-6.3c-.69,0-1.25-.56-1.25-1.25h0Z"></path></g></g><g><g><path class="h" d="M33.91,24.76c0-1.89-1.53-3.42-3.42-3.42-1.46,0-2.71,.92-3.2,2.22-.26,.13-.51,.28-.74,.46-.43,.34-.79,.76-1.05,1.24-6.43-.6-12.13-1.88-13.97-2.32-.42-.1-.85-.09-1.27,.01l-1.59,.42,1.95,2.25s-.1-.51,2.81,.6c2.91,1.1,4.54,2.14,6.38,3.47,1.84,1.32,3.7,1.79,3.7,1.79l6.75,.69c.43-.5,.67-1.02,.77-1.52,1.19-.7,2-1.98,2-3.47,0-.04,0-.08,0-.12,.55-.61,.88-1.41,.88-2.29Zm-6.84,.48v-.03s0,.03,0,.03Z"></path><path class="i" d="M26.22,23.21l-4.75-.17s-2.47,1.65-9.48,2.15c-.3-.44-.7-.82-1.16-1.09-.31-1.57-1.69-2.75-3.35-2.75-1.89,0-3.42,1.53-3.42,3.42,0,1.04,.47,1.97,1.2,2.6,.03,1.06,.51,2.01,1.26,2.67,.04,.62,.26,1.26,.76,1.9l6.77-.46s1.88-.4,3.76-1.66c1.88-1.26,3.56-2.87,6.51-3.87,.39-.13,.73-.24,1.02-.34,.27-.63,.69-1.17,1.22-1.58l-.34-.8Z"></path><path class="i" d="M32.39,23.9c-.39-.96-1.51-.37-1.51-.37,0,0-.2-1.2-1.29-.72-1.41,.62,0,3.29,0,3.29,0,0,3.32-.94,2.8-2.2Z"></path></g><path class="e" d="M30.49,20.03c-1.5,0-2.89,.72-3.77,1.89l-.46-.02-4.75-.17-.44-.02-.33,.23c-.08,.05-.88,.52-2.67,.99-2.91-.5-5.15-1.01-6.25-1.27-.28-.07-.58-.1-.87-.1-.89-.97-2.14-1.53-3.48-1.53-2.61,0-4.73,2.12-4.73,4.73,0,1.19,.45,2.33,1.25,3.19,.14,1,.59,1.94,1.28,2.68,.14,.74,.46,1.44,.97,2.09l.43,.54,.69-.05,6.77-.46h.09l.09-.03c.09-.02,2.15-.47,4.22-1.85,.12-.08,.25-.17,.37-.25,.05,.03,.1,.07,.15,.11,2.02,1.45,4.06,1.97,4.15,1.99l.09,.02h.09l6.75,.7,.69,.07,.45-.53c.41-.48,.71-1,.9-1.54,1.26-.93,2.06-2.38,2.17-3.94,.58-.8,.89-1.76,.89-2.75,0-2.61-2.12-4.73-4.73-4.73Zm2.83,6.64c-.14,.16-.36,.23-.61,.17-.21-.04-.82-.07-.82-.07,0,0,.76,.06,1.13,.73-.09,1.12-.64,2.1-1.46,2.77-.27,.2-.61,.16-.9-.11-.22-.2-.91-.66-.91-.66,0,0,1.02,.73,.89,2.13-.11,.18-.23,.35-.38,.52l-6.75-.69s-1.86-.46-3.7-1.79c-.04-.03-.08-.06-.13-.09,.53-.75,1.48-1.94,2.86-2.92,0,0-1.77,.85-3.65,2.37h0c-.36,.26-.72,.52-1.08,.77-1.88,1.26-3.76,1.66-3.76,1.66l-6.77,.46c-.45-.57-.68-1.15-.74-1.71,.03-1.19,.9-1.81,.9-1.81,0,0-.69,.45-.91,.66-.21,.19-.44,.27-.65,.23-.34-.52-.56-1.12-.6-1.78,.02-.75,.67-1.16,.67-1.16,0,0-.53,.3-.7,.44-.12,.1-.25,.15-.39,.16-.49-.59-.79-1.35-.79-2.18,0-1.89,1.53-3.42,3.42-3.42,1.22,0,2.28,.64,2.89,1.59,.19-.04,.38-.06,.57-.06s.4,.02,.59,.07c1.08,.26,3.5,.8,6.61,1.33,2.38-.6,3.33-1.23,3.33-1.23l4.75,.17,.34,.8c.23-.18,.48-.33,.74-.46,.49-1.29,1.73-2.22,3.2-2.22,1.89,0,3.42,1.53,3.42,3.42,0,.71-.22,1.36-.59,1.91Z"></path></g></svg>
