<?xml version="1.0" encoding="UTF-8"?><svg id="a" xmlns="http://www.w3.org/2000/svg" viewBox="0 0 307.63 117.01"><defs><style>.b{fill:#000;}.c{fill:#f0d6d4;}.d{fill:#bc91a5;}.e{fill:#1b202b;}.f{fill:#a3aebe;}.g{fill:#2f3747;}.h{fill:#61abd5;}.i{fill:#467ca2;}</style></defs><g><g><g><path class="h" d="M71.56,41.78c.32-.36,.61-.76,.86-1.19l1.84-3.19c1.99-3.45,.8-7.9-2.65-9.89h0c-3.45-1.99-7.9-.8-9.89,2.65l-.43,.75c-4.57-2.88-9.97-4.56-15.75-4.56h0c-5.77,0-11.17,1.68-15.75,4.56l-.43-.75c-1.99-3.45-6.44-4.64-9.89-2.65h0c-3.45,1.99-4.64,6.44-2.65,9.89l1.84,3.19c.25,.43,.54,.83,.86,1.19-2.34,4.24-3.67,9.09-3.67,14.25h0c0,5.86,4.75,10.61,10.61,10.61h38.16c5.86,0,10.61-4.75,10.61-10.61h0c0-5.16-1.33-10.01-3.67-14.25Z"/><path class="i" d="M15.86,56.03c0,5.86,4.75,10.61,10.61,10.61h38.16c5.86,0,10.61-4.75,10.61-10.61h0c0-.99-.05-1.98-.15-2.95,0,4.76-1.61,8.67-7.53,8.67H23.53c-5.94,0-7.53-4.07-7.53-8.67-.1,.97-.15,1.95-.15,2.95h0Z"/><rect class="b" x="41.84" y="58.42" width="7.4" height="5.23" rx="2.62" ry="2.62"/><path class="c" d="M45.43,53.44h.22c2.94,0,5.32,2.38,5.32,5.32h0c0,1.32-1.07,2.4-2.4,2.4h-6.06c-1.32,0-2.4-1.07-2.4-2.4h0c0-2.94,2.38-5.32,5.32-5.32Z"/><rect class="d" x="41.84" y="52.06" width="7.4" height="4.26" rx="2.13" ry="2.13"/><path class="i" d="M21.5,38.38c1.99-2.79,4.25-4.76,5.9-5.97-.71-1.56-2.27-2.64-4.09-2.64-2.48,0-4.5,2.01-4.5,4.5,0,1.84,1.11,3.42,2.69,4.12Z"/><path class="i" d="M69.59,38.38c-1.99-2.79-4.25-4.76-5.9-5.97,.71-1.56,2.27-2.64,4.09-2.64,2.48,0,4.5,2.01,4.5,4.5,0,1.84-1.11,3.42-2.69,4.12Z"/></g><path class="g" d="M82.11,29.09c-1.54-1.54-3.58-2.38-5.76-2.38-.27,0-.55,.01-.82,.04-.68-.73-1.48-1.37-2.38-1.9-1.56-.9-3.33-1.38-5.14-1.38-2.94,0-5.72,1.26-7.65,3.38-4.58-2.34-9.65-3.57-14.82-3.57s-10.23,1.23-14.82,3.57c-1.93-2.12-4.71-3.38-7.65-3.38-1.8,0-3.58,.48-5.14,1.38-4.92,2.84-6.62,9.16-3.77,14.09l1.79,3.1c-2.08,4.36-3.17,9.17-3.17,14,0,7.54,6.14,13.68,13.68,13.68h38.16c7.54,0,13.68-6.14,13.68-13.68,0-3.41-.55-6.79-1.6-10.02l5.4-5.4c3.17-3.17,3.17-8.34,0-11.52Zm-17.48,37.55H26.46c-5.86,0-10.61-4.75-10.61-10.61,0-5.16,1.33-10.01,3.67-14.25-.32-.36-.61-.76-.86-1.19l-1.84-3.19c-1.99-3.45-.8-7.9,2.65-9.89,1.13-.65,2.37-.96,3.6-.96,2.51,0,4.96,1.3,6.29,3.62l.43,.75c4.57-2.88,9.97-4.56,15.75-4.56s11.17,1.68,15.75,4.56l.43-.75c1.34-2.32,3.78-3.62,6.29-3.62,1.23,0,2.47,.31,3.6,.96,.19,.11,.38,.23,.56,.36-.57,.34-1.1,.74-1.58,1.22l-2.88,2.88c-.29-.08-.59-.13-.9-.13-.97,0-1.84,.43-2.44,1.1,1.37,1.08,3.04,2.62,4.59,4.62,.68-.6,1.11-1.47,1.11-2.45,0-.35-.06-.69-.16-1l2.84-2.84c.45-.45,.96-.79,1.52-1.04,1.22,2.16,1.3,4.89-.02,7.18l-1.84,3.19c-.25,.43-.54,.83-.86,1.19,2.34,4.24,3.67,9.09,3.67,14.25,0,5.86-4.75,10.61-10.61,10.61Zm15.31-28.21l-4.43,4.43c-.12-.28-.24-.56-.37-.84l1.79-3.1c1.65-2.85,1.76-6.17,.62-9.01,.9,.22,1.72,.67,2.4,1.34,1.98,1.98,1.98,5.2,0,7.18Z"/><g><path class="e" d="M49.24,39.58v6.21h-7.4v-6.21H15.86v9.69c0,4.43,3.59,8.03,8.03,8.03h9.93c4.43,0,8.03-3.59,8.03-8.03v-.41h7.4v.41c0,4.43,3.59,8.03,8.03,8.03h9.93c4.43,0,8.03-3.59,8.03-8.03v-9.69h-25.99Z"/><path class="g" d="M18.51,42.31h20.65v2.91c0,3.93-3.19,7.12-7.12,7.12h-6.41c-3.93,0-7.12-3.19-7.12-7.12v-2.91h0Z"/><path class="f" d="M18.51,42.31h20.65c0,1.62-1.32,2.94-2.94,2.94h-14.78c-1.62,0-2.94-1.32-2.94-2.94h0Z"/><path class="g" d="M51.91,42.31h20.65v2.91c0,3.93-3.19,7.12-7.12,7.12h-6.41c-3.93,0-7.12-3.19-7.12-7.12v-2.91h0Z"/><path class="f" d="M51.91,42.31h20.65c0,1.62-1.32,2.94-2.94,2.94h-14.78c-1.62,0-2.94-1.32-2.94-2.94h0Z"/></g></g><g><g><path class="h" d="M81.36,70.89c0-4.43-3.59-8.03-8.03-8.03-3.44,0-6.36,2.16-7.51,5.2-.62,.3-1.2,.65-1.74,1.07-1.01,.79-1.85,1.78-2.47,2.91-15.09-1.42-28.46-4.4-32.79-5.44-.98-.23-2-.22-2.98,.03l-3.72,.97,4.58,5.28s-.23-1.19,6.59,1.4c6.82,2.59,10.66,5.03,14.98,8.14,4.31,3.11,8.69,4.19,8.69,4.19l15.85,1.62c1-1.18,1.56-2.38,1.81-3.57,2.8-1.63,4.69-4.66,4.69-8.13,0-.1-.01-.19-.01-.28,1.29-1.42,2.07-3.3,2.07-5.37Zm-16.06,1.12l-.03-.07c.05,.03,.03,.07,.03,.07Z"/><path class="i" d="M63.29,67.25l-11.14-.4s-5.8,3.88-22.24,5.03c-.71-1.04-1.64-1.91-2.72-2.57-.73-3.68-3.98-6.45-7.87-6.45-4.43,0-8.03,3.59-8.03,8.03,0,2.44,1.09,4.62,2.81,6.09,.07,2.5,1.2,4.73,2.96,6.26,.08,1.45,.6,2.96,1.78,4.45l15.89-1.08s4.41-.94,8.82-3.89c4.42-2.96,8.36-6.72,15.27-9.08,.92-.32,1.71-.57,2.39-.79,.63-1.47,1.62-2.74,2.87-3.71l-.79-1.89Z"/><path class="i" d="M77.78,68.86c-.93-2.24-3.55-.87-3.55-.87,0,0-.47-2.81-3.03-1.68-3.31,1.46,0,7.72,0,7.72,0,0,7.79-2.21,6.57-5.17Z"/></g><path class="g" d="M73.33,59.8c-3.51,0-6.79,1.7-8.85,4.42l-1.07-.04-11.14-.4-1.03-.04-.77,.54c-.2,.12-2.07,1.21-6.26,2.32-6.83-1.18-12.09-2.36-14.67-2.98-.67-.16-1.35-.24-2.05-.24-2.08-2.27-5.02-3.59-8.17-3.59-6.12,0-11.1,4.98-11.1,11.1,0,2.79,1.05,5.46,2.92,7.5,.34,2.35,1.39,4.55,3,6.29,.32,1.74,1.08,3.39,2.29,4.91l1,1.27,1.61-.11,15.89-1.08h.22l.21-.06c.2-.04,5.04-1.1,9.89-4.35,.29-.19,.58-.39,.86-.59,.11,.08,.23,.16,.35,.25,4.74,3.41,9.54,4.63,9.74,4.68l.21,.05,.22,.02,15.85,1.62,1.61,.16,1.04-1.23c.95-1.13,1.66-2.34,2.11-3.62,2.97-2.18,4.85-5.58,5.09-9.26,1.35-1.88,2.09-4.13,2.09-6.46,0-6.12-4.98-11.1-11.1-11.1Zm6.64,15.58c-.33,.38-.85,.53-1.43,.41-.49-.1-1.92-.16-1.92-.16,0,0,1.79,.15,2.65,1.7-.21,2.62-1.5,4.93-3.43,6.51-.63,.47-1.43,.37-2.11-.27-.51-.48-2.14-1.54-2.14-1.54,0,0,2.4,1.72,2.09,5.01-.25,.41-.54,.82-.88,1.23l-15.85-1.62s-4.37-1.09-8.69-4.19c-.1-.07-.2-.14-.3-.21,1.23-1.77,3.48-4.55,6.71-6.86,0,0-4.16,1.99-8.57,5.55h0c-.85,.62-1.69,1.22-2.54,1.8-4.42,2.96-8.82,3.89-8.82,3.89l-15.89,1.08c-1.06-1.34-1.58-2.7-1.74-4.01,.08-2.8,2.11-4.26,2.11-4.26,0,0-1.63,1.06-2.14,1.54-.48,.46-1.03,.64-1.54,.53-.8-1.21-1.31-2.64-1.41-4.18,.05-1.76,1.56-2.72,1.56-2.72,0,0-1.24,.72-1.63,1.03-.28,.23-.6,.36-.91,.38-1.16-1.39-1.86-3.17-1.86-5.11,0-4.43,3.59-8.03,8.03-8.03,2.85,0,5.35,1.49,6.77,3.73,.44-.1,.89-.15,1.34-.15s.93,.05,1.38,.16c2.55,.61,8.21,1.89,15.51,3.13,5.59-1.41,7.82-2.89,7.82-2.89l11.14,.4,.79,1.89c.53-.42,1.12-.78,1.74-1.07,1.14-3.04,4.07-5.2,7.51-5.2,4.43,0,8.03,3.59,8.03,8.03,0,1.66-.52,3.2-1.38,4.48Z"/></g></g><g><path class="b" d="M128.66,65.83c-.7,1.87-1.7,3.48-3.01,4.84s-2.83,2.38-4.59,3.08-3.67,1.05-5.74,1.05c-3.14,0-5.86-.69-8.14-2.08-2.29-1.39-4.06-3.35-5.31-5.89-1.25-2.54-1.88-5.56-1.88-9.07s.63-6.53,1.88-9.07c1.25-2.54,3.02-4.5,5.31-5.89,2.29-1.39,4.97-2.08,8.04-2.08,2.14,0,4.04,.29,5.71,.88,1.67,.58,3.1,1.45,4.28,2.61,1.19,1.15,2.13,2.56,2.83,4.23l-3.96,1.85c-.73-1.9-1.8-3.35-3.18-4.33-1.39-.98-3.18-1.48-5.39-1.48s-4.21,.53-5.91,1.58c-1.7,1.05-3.03,2.56-3.98,4.54-.95,1.97-1.43,4.36-1.43,7.17s.45,5.15,1.35,7.14c.9,1.99,2.19,3.51,3.86,4.56,1.67,1.05,3.64,1.58,5.91,1.58s4.13-.56,5.76-1.68c1.64-1.12,2.82-2.8,3.56-5.04l4.01,1.5Z"/><path class="b" d="M135.62,74.29V37.71h4.01v15.28c.87-1.5,2.02-2.59,3.46-3.26,1.44-.67,3.01-1,4.71-1,1.8,0,3.44,.34,4.91,1.03,1.47,.69,2.65,1.73,3.53,3.13,.88,1.4,1.33,3.19,1.33,5.36v16.04h-4.01v-14.63c0-2.77-.59-4.7-1.78-5.79-1.19-1.09-2.65-1.63-4.38-1.63-1.2,0-2.41,.28-3.61,.85-1.2,.57-2.2,1.5-2.98,2.78-.79,1.29-1.18,3-1.18,5.14v13.28h-4.01Z"/><path class="b" d="M166.64,84.82V49.24h3.51l.35,6.11-.55-.7c.43-1.17,1.09-2.2,1.95-3.08,.87-.88,1.92-1.58,3.16-2.08,1.24-.5,2.57-.75,4.01-.75,2.04,0,3.92,.52,5.64,1.55,1.72,1.04,3.1,2.52,4.13,4.46,1.04,1.94,1.55,4.28,1.55,7.02s-.53,5.04-1.58,6.99c-1.05,1.95-2.45,3.45-4.18,4.49-1.74,1.04-3.64,1.55-5.71,1.55s-3.88-.51-5.44-1.53c-1.55-1.02-2.66-2.31-3.33-3.88l.5-.75v16.19h-4.01Zm11.88-13.53c2.47,0,4.4-.87,5.79-2.61,1.39-1.74,2.08-4.04,2.08-6.92s-.68-5.18-2.03-6.92c-1.35-1.74-3.25-2.61-5.69-2.61-1.6,0-3.01,.39-4.21,1.18-1.2,.79-2.14,1.89-2.81,3.31-.67,1.42-1,3.1-1,5.04s.33,3.58,.98,5.01c.65,1.44,1.57,2.55,2.76,3.33,1.19,.79,2.56,1.18,4.13,1.18Z"/><path class="b" d="M198.06,74.29v-25.06h3.26l.55,4.11c.7-1.54,1.73-2.69,3.08-3.46,1.35-.77,3-1.15,4.94-1.15,.43,0,.91,.03,1.43,.1,.52,.07,.96,.2,1.33,.4l-.7,3.66c-.37-.13-.77-.23-1.2-.3-.43-.07-1.05-.1-1.85-.1-1.04,0-2.08,.3-3.13,.9-1.05,.6-1.93,1.51-2.63,2.73-.7,1.22-1.05,2.76-1.05,4.64v13.53h-4.01Z"/><path class="b" d="M228.08,48.74c2.37,0,4.47,.52,6.29,1.55,1.82,1.04,3.25,2.53,4.28,4.49,1.04,1.95,1.55,4.28,1.55,6.99s-.52,5.04-1.55,6.99c-1.04,1.95-2.46,3.45-4.28,4.49-1.82,1.04-3.92,1.55-6.29,1.55s-4.43-.52-6.26-1.55c-1.84-1.04-3.27-2.53-4.31-4.49-1.04-1.95-1.55-4.28-1.55-6.99s.52-5.04,1.55-6.99c1.04-1.95,2.47-3.45,4.31-4.49,1.84-1.03,3.92-1.55,6.26-1.55Zm0,3.46c-1.7,0-3.16,.38-4.36,1.15-1.2,.77-2.13,1.86-2.78,3.28-.65,1.42-.98,3.13-.98,5.14s.33,3.68,.98,5.11c.65,1.44,1.58,2.54,2.78,3.31,1.2,.77,2.66,1.15,4.36,1.15s3.16-.38,4.36-1.15c1.2-.77,2.13-1.87,2.78-3.31,.65-1.44,.98-3.14,.98-5.11s-.33-3.72-.98-5.14c-.65-1.42-1.58-2.51-2.78-3.28-1.2-.77-2.66-1.15-4.36-1.15Z"/><path class="b" d="M266.97,49.24l-9.92,13.38h-.25l-8.62,11.68h-4.66l10.92-14.38h.3l7.52-10.67h4.71Zm-17.84,0l7.47,10.47,.25,.35,10.27,14.23h-4.91l-7.77-10.87-.45-.55-9.87-13.63h5.01Z"/><path class="b" d="M294.03,49.24l-11.78,29.27c-.64,1.64-1.33,2.93-2.08,3.88s-1.59,1.64-2.51,2.05c-.92,.42-1.98,.63-3.18,.63-1.14,0-2.18-.16-3.13-.48-.95-.32-1.8-.74-2.53-1.28l1.1-3.51c.67,.6,1.38,1.04,2.13,1.33,.75,.28,1.5,.43,2.23,.43,.87,0,1.69-.27,2.46-.8,.77-.53,1.47-1.62,2.1-3.26l1.3-3.26-2.5-5.96-7.97-19.04h4.56l6.26,16.34,1.55,4.46,1.8-4.96,5.86-15.84h4.31Z"/></g></svg>